<?xml version="1.0" encoding="iso-8859-1"?>
<!-- Generator: Adobe Illustrator 19.0.0, SVG Export Plug-In . SVG Version: 6.00 Build 0)  -->
<svg version="1.1" id="Layer_1" xmlns="http://www.w3.org/2000/svg" xmlns:xlink="http://www.w3.org/1999/xlink" x="0px" y="0px"
	 viewBox="0 0 512.003 512.003" style="enable-background:new 0 0 512.003 512.003;" xml:space="preserve">
<path style="fill:#2BA5F7;" d="M256.358,8.188c82.275,0,148.865,66.589,148.865,148.865c0,82.286-66.589,148.865-148.865,148.865
	c-82.286,0-148.865-66.578-148.865-148.865C107.493,74.777,174.071,8.188,256.358,8.188z"/>
<path style="fill:#0F8DD3;" d="M181.222,157.053c0-69.55,47.576-127.885,111.998-144.269c-11.788-2.998-24.136-4.595-36.863-4.595
	c-82.286,0-148.865,66.589-148.865,148.865c0,82.286,66.578,148.865,148.865,148.865c12.726,0,25.076-1.597,36.863-4.594
	C228.799,284.942,181.222,226.611,181.222,157.053z"/>
<path style="fill:#FFD3AE;" d="M432.203,234.347c10.006,0.076,18.035,8.269,17.914,18.275l-1.234,103.5
	c-0.12,10.399-3.987,20.416-10.891,28.193l-69.342,78.201c-3.572,4.02-5.527,9.219-5.494,14.605l0.251,26.686h-76.431
	l-14.146-77.447c-3.059-16.767,1.486-34.212,12.955-46.829c0.459-0.502,0.939-1.005,1.42-1.507l65.541-67.135
	c2.971-3.048,6.904-4.555,10.825-4.555c4.031,0,8.061,1.595,11.055,4.784c5.374,5.757,5.44,14.67,0.153,20.503l-39.466,43.508
	c-2.447,2.698-3.637,6.063-3.637,9.416c0,4.14,1.824,8.258,5.363,11.033c5.757,4.533,14.026,3.856,18.985-1.529l45.671-49.68
	c4.053-4.424,6.499-10.082,6.925-16.068l5.44-77.163c0.677-9.471,8.553-16.789,18.013-16.789
	C432.116,234.347,432.159,234.347,432.203,234.347z"/>
<path style="fill:#E5B48F;" d="M308.353,379.531c-11.47,12.617-16.014,30.061-12.955,46.829l14.146,77.447h-22.568L272.83,426.36
	c-3.059-16.767,1.486-34.212,12.955-46.829c0.459-0.502,0.939-1.005,1.42-1.507l65.541-67.135c2.971-3.048,6.904-4.555,10.825-4.555
	c4.031,0,8.061,1.595,11.055,4.784c0.076,0.076,0.153,0.164,0.218,0.251l-65.071,66.655
	C309.293,378.525,308.812,379.028,308.353,379.531z"/>
<path style="fill:#FFD3AE;" d="M226.231,379.53c11.459,12.617,16.003,30.061,12.944,46.829l-14.135,77.447h-76.442l0.251-26.686
	c0.044-5.385-1.923-10.585-5.484-14.605l-69.342-78.201c-6.904-7.777-10.771-17.794-10.902-28.193l-1.234-103.5
	c-0.12-10.006,7.909-18.198,17.914-18.275c0.044,0,0.087,0,0.131,0c9.46,0,17.346,7.319,18.013,16.789l5.451,77.163
	c0.426,5.986,2.862,11.644,6.925,16.068l45.66,49.68c4.959,5.385,13.228,6.063,18.985,1.529c3.539-2.775,5.363-6.893,5.363-11.033
	c0-3.354-1.191-6.718-3.637-9.416l-39.466-43.508c-5.287-5.833-5.221-14.747,0.164-20.503c2.982-3.19,7.013-4.784,11.044-4.784
	c3.932,0,7.854,1.507,10.825,4.555l65.541,67.135C225.291,378.525,225.761,379.028,226.231,379.53z"/>
<path style="fill:#E5B48F;" d="M168.853,462.517l-69.342-78.201c-6.904-7.777-10.771-17.794-10.902-28.193l-8.676-121.774
	c-0.061-5.07,9.418,8.607,12.739,5.287c-3.279-3.269-7.787-5.287-12.739-5.287c-0.044,0-0.087,0-0.131,0
	c-10.006,0.076-18.035,8.269-17.914,18.275l1.234,103.5c0.131,10.399,3.998,20.416,10.902,28.193l69.342,78.201
	c3.561,4.02,5.527,9.219,5.484,14.605l-0.251,26.686h25.488l0.251-26.686C174.381,471.735,172.414,466.536,168.853,462.517z"/>
<g>
	<path style="fill:#FFFFFF;" d="M204.67,471.565c-0.488,0-0.982-0.044-1.48-0.135c-4.45-0.813-7.401-5.078-6.588-9.531l7.649-41.911
		c1.113-6.101-0.442-12.239-4.165-16.44l-0.427-0.453c-3.116-3.281-2.981-8.467,0.298-11.583c3.281-3.116,8.467-2.981,11.583,0.298
		l0.569,0.604c0.042,0.045,0.082,0.09,0.122,0.134c7.117,7.946,10.159,19.304,8.137,30.38l-7.649,41.912
		C211.999,468.796,208.551,471.565,204.67,471.565z"/>
	<circle style="fill:#FFFFFF;" cx="432.605" cy="257.018" r="8.193"/>
</g>
<g>
	<path style="fill:#333333;" d="M230.667,372.303l-65.544-67.138c-4.492-4.601-10.532-7.061-16.937-7.028
		c-6.43,0.069-12.389,2.694-16.781,7.39c-8.226,8.796-8.335,22.675-0.244,31.596l39.465,43.515c1.099,1.211,1.629,2.777,1.491,4.407
		c-0.138,1.63-0.922,3.085-2.209,4.095c-2.378,1.869-5.847,1.589-7.894-0.639l-45.668-49.68c-2.793-3.038-4.49-6.978-4.78-11.094
		l-5.449-77.17c-0.969-13.719-12.448-24.396-26.179-24.396c-0.068,0-0.135,0-0.203,0c-7.031,0.055-13.615,2.849-18.538,7.87
		c-4.923,5.02-7.587,11.657-7.503,18.688l1.237,103.501c0.149,12.37,4.75,24.278,12.956,33.534l69.344,78.195
		c2.231,2.516,3.449,5.753,3.428,9.088l-0.257,26.69c-0.043,4.524,3.589,8.228,8.114,8.271c0.026,0,0.054,0,0.081,0
		c4.486,0,8.147-3.617,8.19-8.114l0.257-26.719c0.046-7.41-2.637-14.545-7.554-20.088l-69.344-78.195
		c-5.594-6.309-8.731-14.428-8.833-22.858l-1.237-103.501c-0.031-2.641,0.97-5.135,2.819-7.02c1.849-1.886,4.324-2.936,6.965-2.957
		c0.025,0,0.05,0,0.075,0c5.159,0,9.472,4.012,9.835,9.166l5.449,77.17c0.549,7.802,3.767,15.27,9.062,21.03l45.667,49.68
		c7.805,8.49,21.016,9.557,30.08,2.436c4.831-3.795,7.897-9.482,8.413-15.603c0.517-6.121-1.554-12.241-5.68-16.792l-39.465-43.515
		c-2.406-2.653-2.375-6.78,0.072-9.396c1.305-1.396,3.078-2.177,4.99-2.197c1.882-0.05,3.701,0.722,5.037,2.09l65.541,67.134
		c0.416,0.427,0.825,0.861,1.225,1.301c9.506,10.452,13.6,25.346,10.953,39.841l-14.14,77.446c-0.813,4.451,2.137,8.718,6.588,9.531
		c0.497,0.091,0.992,0.135,1.48,0.135c3.88,0,7.327-2.769,8.049-6.722l14.14-77.446c3.559-19.486-2.03-39.602-14.949-53.807
		C231.759,373.443,231.22,372.87,230.667,372.303z"/>
	<path style="fill:#333333;" d="M450.809,234.029c-4.923-5.02-11.506-7.815-18.538-7.869c-0.069,0-0.135,0-0.204,0
		c-13.729,0-25.208,10.679-26.177,24.396l-5.449,77.171c-0.291,4.117-1.988,8.056-4.78,11.094l-45.668,49.681
		c-2.049,2.228-5.517,2.508-7.895,0.639c-1.287-1.01-2.071-2.464-2.208-4.095c-0.138-1.63,0.392-3.195,1.491-4.407l39.465-43.515
		c8.091-8.921,7.984-22.8-0.244-31.597c-4.392-4.696-10.354-7.32-16.784-7.389c-0.085,0-0.17-0.001-0.257-0.001
		c-6.332,0-12.246,2.491-16.677,7.029l-65.547,67.141c-0.551,0.564-1.091,1.137-1.618,1.717
		c-12.918,14.207-18.507,34.321-14.95,53.808l14.141,77.446c0.722,3.954,4.168,6.722,8.049,6.722c0.488,0,0.983-0.045,1.481-0.135
		c4.45-0.813,7.4-5.079,6.587-9.531l-14.142-77.446c-2.647-14.494,1.448-29.387,10.954-39.842c0.399-0.439,0.808-0.873,1.221-1.297
		l65.545-67.138c1.336-1.368,3.149-2.139,5.035-2.09c1.913,0.021,3.684,0.801,4.991,2.197c2.447,2.616,2.48,6.743,0.072,9.396
		l-39.465,43.515c-4.126,4.551-6.197,10.671-5.68,16.792c0.516,6.121,3.582,11.808,8.411,15.603
		c9.064,7.123,22.279,6.054,30.081-2.435l45.668-49.68c5.294-5.758,8.51-13.226,9.062-21.028l5.449-77.171
		c0.364-5.154,4.675-9.165,9.833-9.165c0.025,0,0.051,0,0.076,0c2.642,0.021,5.115,1.069,6.965,2.956
		c1.849,1.886,2.85,4.379,2.819,7.022l-1.237,103.501c-0.1,8.432-3.238,16.549-8.833,22.858l-69.344,78.195
		c-4.918,5.545-7.599,12.68-7.552,20.118l0.257,26.69c0.044,4.497,3.703,8.114,8.19,8.114c0.027,0,0.055,0,0.081,0
		c4.524-0.044,8.157-3.747,8.114-8.271l-0.257-26.663c-0.022-3.362,1.196-6.599,3.427-9.115l69.344-78.195
		c8.209-9.255,12.811-21.165,12.956-33.535l1.237-103.5C458.396,245.687,455.732,239.05,450.809,234.029z"/>
	<path style="fill:#333333;" d="M413.41,157.054C413.41,70.454,342.954,0,256.354,0S99.3,70.454,99.3,157.054
		s70.454,157.055,157.054,157.055S413.41,243.655,413.41,157.054z M115.93,165.253h42.794c0.683,21.433,4.033,42.237,9.773,61.212
		c-7.905,5.299-15.353,11.332-22.236,18.049C128.727,222.486,117.655,195.105,115.93,165.253z M146.261,69.595
		c6.882,6.718,14.33,12.75,22.236,18.049c-5.74,18.978-9.092,39.784-9.773,61.223H115.93
		C117.652,119.012,128.725,91.625,146.261,69.595z M396.781,148.868h-43.495c-0.683-21.438-4.033-42.245-9.773-61.223
		c8.055-5.399,15.638-11.559,22.629-18.43C383.855,91.309,395.048,118.838,396.781,148.868z M264.2,17.135
		c19.109,3.491,37.263,19.071,50.761,43.938c3.297,6.071,6.234,12.581,8.827,19.416c-18.219,10.016-38.574,15.97-59.588,17.203
		V17.135z M247.814,97.693c-21.018-1.233-41.374-7.188-59.593-17.203c2.593-6.837,5.531-13.345,8.828-19.417
		c13.498-24.866,31.653-40.446,50.766-43.937v80.558H247.814z M247.814,114.109v34.758h-72.693
		c0.622-18.378,3.332-36.186,7.919-52.57C202.96,106.746,225.05,112.913,247.814,114.109z M247.814,165.253v34.746
		c-22.766,1.196-44.855,7.363-64.774,17.812c-4.588-16.381-7.298-34.186-7.919-52.558H247.814z M247.814,216.416v80.558
		c-19.113-3.491-37.267-19.071-50.767-43.938c-3.297-6.071-6.234-12.579-8.827-19.416
		C206.441,223.604,226.797,217.649,247.814,216.416z M264.2,216.416c21.015,1.233,41.369,7.187,59.588,17.203
		c-2.593,6.837-5.532,13.346-8.828,19.418c-13.497,24.867-31.651,40.446-50.76,43.938V216.416z M264.2,199.998v-34.746h72.689
		c-0.622,18.372-3.332,36.177-7.919,52.558C309.05,207.362,286.962,201.194,264.2,199.998z M264.2,148.868v-34.757
		c22.762-1.196,44.851-7.362,64.768-17.812c4.588,16.383,7.299,34.191,7.921,52.569H264.2z M337.907,71.606
		c-2.559-6.415-5.402-12.561-8.547-18.352c-5.313-9.788-11.331-18.358-17.877-25.611c16.387,7.007,31.182,17.042,43.684,29.393
		C349.788,62.377,344.009,67.241,337.907,71.606z M182.65,53.253c-3.145,5.792-5.987,11.938-8.546,18.354
		c-5.972-4.272-11.629-9.024-16.907-14.23c12.283-12.22,26.807-22.185,42.89-29.233C193.71,35.291,187.841,43.687,182.65,53.253z
		 M174.102,242.502c2.559,6.414,5.402,12.561,8.545,18.352c5.188,9.556,11.045,17.957,17.411,25.1
		c-16.073-7.047-30.588-17.009-42.865-29.222C162.474,251.526,168.13,246.774,174.102,242.502z M329.359,260.855
		c3.145-5.792,5.988-11.938,8.548-18.354c6.103,4.366,11.881,9.229,17.26,14.571c-12.5,12.351-27.293,22.384-43.68,29.392
		C318.032,279.212,324.047,270.641,329.359,260.855z M343.512,226.464c5.74-18.975,9.09-39.778,9.773-61.211h43.494
		c-1.735,30.024-12.927,57.55-30.638,79.642C359.15,238.023,351.567,231.863,343.512,226.464z"/>
</g>
<g>
	<path style="fill:#FFFFFF;" d="M376.195,174.843c-0.235,0-0.472-0.01-0.709-0.031c-4.508-0.387-7.85-4.354-7.463-8.862
		c0.279-3.243,0.419-6.532,0.419-9.776c0-56.968-42.617-104.973-99.129-111.664c-4.493-0.532-7.704-4.605-7.172-9.099
		c0.532-4.494,4.604-7.705,9.099-7.172c64.755,7.666,113.587,62.666,113.587,127.935c0,3.71-0.161,7.469-0.478,11.176
		C383.983,171.619,380.403,174.843,376.195,174.843z"/>
	<circle style="fill:#FFFFFF;" cx="245.028" cy="36.03" r="8.193"/>
</g>
<g>
</g>
<g>
</g>
<g>
</g>
<g>
</g>
<g>
</g>
<g>
</g>
<g>
</g>
<g>
</g>
<g>
</g>
<g>
</g>
<g>
</g>
<g>
</g>
<g>
</g>
<g>
</g>
<g>
</g>
</svg>
